<?xml version="1.0" encoding="utf-8"?><svg viewBox="0 0 157 50" xmlns="http://www.w3.org/2000/svg" xmlns:xlink="http://www.w3.org/1999/xlink"><style>:root>svg{display:none}:root>svg:target{display:block}</style><svg fill="none" viewBox="0 0 157 50" id="logo" xmlns="http://www.w3.org/2000/svg"><path d="M73.55 16.384v.24c.008.094.008.191 0 .292 0 .093-.01.182-.026.267-.009.076-.03.13-.064.164a.579.579 0 0 1-.24.152c-.085.017-.174.03-.266.038-.085 0-.174.009-.267.026a.609.609 0 0 0-.253.088c.017.085.055.14.114.165l.203.05a.35.35 0 0 1 .19.077c.059.034.089.106.089.215 0 .178-.03.326-.09.444a1.41 1.41 0 0 1-.19.304 7.49 7.49 0 0 0-.227.266 1 1 0 0 0-.178.355.753.753 0 0 1-.19.33c-.076.067-.16.122-.254.165a6.203 6.203 0 0 0-.266.114.727.727 0 0 0-.266.228c-.093.101-.169.152-.228.152a.375.375 0 0 1-.089-.013.53.53 0 0 0-.126-.012.203.203 0 0 0-.127.05.12.12 0 0 0-.05.102c0 .017.008.025.025.025.016 0 .02.004.012.013-.101.093-.283.203-.545.33a8.843 8.843 0 0 1-.9.341c-.338.102-.693.19-1.064.267-.364.067-.71.101-1.04.101-.574 0-1.145-.017-1.71-.05a37.762 37.762 0 0 0-1.712-.039H62.13c-.025 0-.063.026-.114.076a.192.192 0 0 1-.152.076c-.093 0-.215-.012-.367-.038a2.08 2.08 0 0 1-.431-.126c-.144-.06-.27-.131-.38-.216a.42.42 0 0 1-.14-.418 2.46 2.46 0 0 0 .026-.114c.076-.237.181-.414.316-.532.136-.127.28-.233.431-.317l.482-.28c.169-.092.317-.223.444-.392.135-.17.245-.397.329-.685.084-.287.127-.671.127-1.153 0-.44-.03-.875-.089-1.305-.05-.431-.076-.867-.076-1.306.009-.811.025-1.614.05-2.408a75.17 75.17 0 0 0 .064-2.408l.013-1.99c0-.211-.009-.456-.026-.735a3.093 3.093 0 0 0-.126-.799 1.535 1.535 0 0 0-.343-.659c-.152-.186-.371-.291-.659-.317a1.78 1.78 0 0 1-.494-.114 2.613 2.613 0 0 1-.532-.266c-.16-.118-.3-.25-.419-.393a.723.723 0 0 1-.177-.469c0-.143.042-.262.127-.355a.938.938 0 0 1 .304-.24 1.21 1.21 0 0 1 .38-.14c.144-.034.275-.05.393-.05.27 0 .537.029.799.088.262.05.532.076.81.076a10.7 10.7 0 0 0 1.04-.05c.355-.034.706-.072 1.052-.115.347-.05.693-.093 1.04-.126.354-.034.71-.051 1.064-.051.296 0 .592.013.887.038l.888.05c.05.068.139.123.266.165.126.043.262.08.405.114.152.034.3.064.444.09a4.093 4.093 0 0 1 .85.19c.151.042.278.105.38.19a.97.97 0 0 1 .278.304c.085.126.16.291.228.494.009.025.047.063.114.114.076.05.16.101.254.152.093.05.181.101.266.152.085.05.144.093.177.127.11.11.22.279.33.507.118.22.224.456.317.71.093.253.169.502.228.747.06.246.089.444.089.596 0 .313-.047.625-.14.938a23.54 23.54 0 0 1-.266.913c-.059.177-.148.346-.266.507-.11.16-.22.325-.33.494-.11.16-.207.325-.291.494a1.283 1.283 0 0 0-.114.533c0 .262.055.524.165.785.11.262.236.503.38.723.059.101.127.199.203.291.084.093.164.186.24.28.085.084.161.177.229.278.067.093.126.199.177.317.11.27.182.553.216.85.033.286.05.574.05.861ZM71.153 8.64a1.71 1.71 0 0 0-.038-.33 6.14 6.14 0 0 0-.089-.38 25.957 25.957 0 0 0-.101-.393 4.63 4.63 0 0 1-.076-.355.847.847 0 0 0-.292-.507 1.58 1.58 0 0 0-.228-.164 2.661 2.661 0 0 1-.254-.203 3.664 3.664 0 0 0-.608-.444 2.725 2.725 0 0 0-.608-.253 3.378 3.378 0 0 0-.672-.114 7.419 7.419 0 0 0-.786-.038c-.186 0-.38.004-.583.012a2.524 2.524 0 0 0-.532.076c-.034.017-.055.038-.064.064a.17.17 0 0 1-.063.076.414.414 0 0 1-.152.076 1.793 1.793 0 0 1-.355.025c-.245 0-.448.034-.608.101a.899.899 0 0 0-.368.292 1.112 1.112 0 0 0-.177.444 3.723 3.723 0 0 0-.064.583l-.025.861c0 .296-.013.592-.038.888-.026.287-.072.57-.14.849-.059.279-.156.55-.291.811.473.118.955.211 1.445.279.49.067.972.101 1.445.101.33 0 .659-.012.988-.038.338-.025.668-.067.989-.127.118-.025.275-.071.469-.139.203-.067.397-.152.583-.253.194-.102.363-.216.507-.343.152-.126.237-.257.253-.392a.789.789 0 0 1 .102-.28 5.95 5.95 0 0 1 .177-.24c.068-.085.127-.17.178-.254a.555.555 0 0 0 .076-.291Zm.418 8.466c0-.22-.03-.439-.089-.659-.05-.22-.093-.439-.127-.659a5.92 5.92 0 0 0-.075-.481.808.808 0 0 0-.102-.305.914.914 0 0 0-.19-.266 6.146 6.146 0 0 0-.368-.33c-.042-.185-.088-.295-.139-.329a.218.218 0 0 0-.14-.05.86.86 0 0 0-.139.012h-.127l-.177-.355a3.125 3.125 0 0 0-.431-.253 1.315 1.315 0 0 0-.469-.114 2.695 2.695 0 0 1-.507-.102c-.16-.05-.33-.076-.507-.076a.206.206 0 0 0-.177.089c-.043.06-.076.089-.102.089a.745.745 0 0 1-.177-.026 1.61 1.61 0 0 0-.216-.063 2.01 2.01 0 0 0-.24-.063.681.681 0 0 0-.216-.038c-.38 0-.752.042-1.115.126-.355.076-.714.16-1.078.254-.067.177-.135.372-.202.583-.06.211-.115.427-.165.646-.05.22-.093.44-.127.66a3.78 3.78 0 0 0-.05.595.85.85 0 0 0 .025.228.7.7 0 0 0 .063.14.89.89 0 0 1 .063.126.41.41 0 0 1 .026.152c0 .338-.038.672-.114 1.002-.068.32-.102.65-.102.988 0 .22.03.431.089.634.06.203.16.389.304.558.17 0 .33.034.482.101.152.06.313.089.481.089.119 0 .233-.03.343-.089a.685.685 0 0 1 .278-.089c.068 0 .119.03.153.09.042.058.11.088.202.088h.051a.262.262 0 0 1 .14-.101.65.65 0 0 1 .228-.064c.093-.017.19-.025.291-.025a4.861 4.861 0 0 1 .697 0c.102.008.216.012.342.012a8.877 8.877 0 0 0 1.014-.278 6.22 6.22 0 0 0 .824-.355c.288-.144.512-.313.672-.507.085-.085.178-.19.279-.317.11-.127.207-.258.292-.393.092-.144.169-.287.228-.43.067-.153.101-.3.101-.444ZM90.673 4.495c0 .102-.038.19-.115.266a1.127 1.127 0 0 1-.278.178 3.58 3.58 0 0 1-.317.14 6.03 6.03 0 0 0-.279.113.915.915 0 0 0-.177.114l-.14.14a.713.713 0 0 1-.152.114.765.765 0 0 1-.203.089c-.11.025-.207.038-.291.038-.085 0-.165.008-.241.025a.368.368 0 0 0-.203.089.799.799 0 0 0-.177.266c-.051.11-.09.24-.114.393a2.304 2.304 0 0 1-.09.418.9.9 0 0 1-.19.342c-.075.093-.198.14-.367.14 0 .093.03.19.089.291l.203.28c.076.092.143.19.203.29.059.094.088.186.088.28a.696.696 0 0 1-.063.29.697.697 0 0 0-.063.292l-.013.774c-.009.169.02.338.088.507.077.16.115.33.115.507a.785.785 0 0 1-.064.304.727.727 0 0 0-.063.304c0 .355.034.71.101 1.065.076.346.114.705.114 1.077 0 .245-.02.511-.063.798a1.424 1.424 0 0 1-.304.71c.008.119.034.22.076.304a3.56 3.56 0 0 1 .24.545c.043.102.064.237.064.406 0 .152-.017.355-.05.608a3.553 3.553 0 0 1-.153.723 2.08 2.08 0 0 1-.317.608.59.59 0 0 1-.494.254h-.05c-.01-.009-.022-.013-.039-.013l-.012.076v.038c0 .118.033.224.101.317a.486.486 0 0 1 .114.317c0 .059-.038.135-.114.228-.068.093-.152.19-.253.291a5.175 5.175 0 0 1-.317.292 8.313 8.313 0 0 0-.254.24 1.046 1.046 0 0 0-.177.229 1.417 1.417 0 0 1-.114.19.49.49 0 0 1-.152.14.98.98 0 0 1-.28.088c-.219.042-.413.106-.582.19a9.196 9.196 0 0 0-.495.267c-.16.084-.333.156-.52.215-.185.068-.41.101-.671.101-.144 0-.283-.017-.418-.05a7.234 7.234 0 0 1-.406-.114 3.424 3.424 0 0 0-.418-.127 1.667 1.667 0 0 0-.406-.05c-.11 0-.22.008-.33.024a3.795 3.795 0 0 1-.316.013c-.085 0-.152-.004-.203-.012-.042-.009-.093-.043-.152-.102a.567.567 0 0 0-.203-.14 2.136 2.136 0 0 0-.279-.113 2.152 2.152 0 0 0-.304-.102 3.563 3.563 0 0 0-.253-.076 1.135 1.135 0 0 1-.444-.253 3.148 3.148 0 0 1-.38-.431 6.436 6.436 0 0 1-.304-.52 4.555 4.555 0 0 1-.418-1.356 17.138 17.138 0 0 1-.102-.9 29.678 29.678 0 0 0-.089-.9 5.402 5.402 0 0 0-.152-.9 5.768 5.768 0 0 0-.114-.355 1.47 1.47 0 0 1-.025-.646l.05-.279c.068-.355.119-.714.153-1.077a9.42 9.42 0 0 0 .063-1.09c0-.482-.026-.96-.076-1.433-.042-.473-.064-.95-.064-1.432v-.266a2.445 2.445 0 0 1 .114-.76c.06-.16.09-.326.09-.495a.518.518 0 0 0-.026-.164 3.987 3.987 0 0 1-.05-.165 1.87 1.87 0 0 1-.178-.596 33.204 33.204 0 0 1-.05-.634c-.035-.363-.11-.62-.23-.773a.927.927 0 0 0-.43-.33 3.256 3.256 0 0 0-.57-.164 1.876 1.876 0 0 1-.647-.33.768.768 0 0 1-.177-.152.4.4 0 0 1-.064-.215c0-.135.072-.258.216-.368.152-.11.33-.198.532-.266.203-.068.406-.118.609-.152.202-.042.359-.063.469-.063.135 0 .261.017.38.05.126.034.257.051.393.051.27 0 .532-.03.785-.089.254-.067.516-.101.786-.101.11 0 .28.021.507.063.229.043.457.106.685.19.228.076.427.174.596.292.177.11.266.236.266.38 0 .186-.06.363-.178.532-.11.161-.25.317-.418.47a11.57 11.57 0 0 1-.558.468c-.194.16-.376.334-.545.52a2.792 2.792 0 0 0-.43.634 1.76 1.76 0 0 0-.166.773c0 .169.005.342.013.52a5.092 5.092 0 0 1-.076 1.508c-.059.33-.089.667-.089 1.014 0 .279.038.532.114.76.085.22.127.393.127.52 0 .135-.017.262-.05.38-.026.11-.039.228-.039.355v.165c.009.05.013.106.013.165a.738.738 0 0 1-.063.33 1.44 1.44 0 0 1-.114.227 3.69 3.69 0 0 1-.127.19.34.34 0 0 0-.063.203c.042-.034.084-.063.126-.088a.265.265 0 0 1 .14-.039c.059 0 .105.022.14.064a.43.43 0 0 1 .075.152c.026.05.043.11.051.177.008.06.013.11.013.152 0 .22.03.436.088.647.068.211.102.427.102.646 0 .195-.017.393-.05.596a3.686 3.686 0 0 0-.013 1.14c.033.161.147.292.342.394.033.017.071.067.114.152.042.084.084.177.126.279.051.093.102.19.153.291.05.093.1.16.152.203.101.093.21.169.33.228.117.06.236.118.354.177.127.051.245.11.355.178.118.059.224.143.317.253.076.093.173.178.291.254.119.067.233.143.343.228.118.076.22.16.304.253a.49.49 0 0 1 .126.343c0-.11.017-.199.051-.266a.386.386 0 0 1 .013.114c0 .067-.017.118-.05.152a.628.628 0 0 0 .088-.127l.101-.177c.034-.06.068-.11.102-.153.034-.042.072-.063.114-.063.059 0 .114.021.165.063.05.043.076.098.076.165a.586.586 0 0 1-.051.241.779.779 0 0 0-.064.24.678.678 0 0 0 .254-.05c.093-.042.177-.093.254-.152a.67.67 0 0 0 .177-.203.51.51 0 0 0 .076-.266c0-.11-.034-.177-.101-.203a.456.456 0 0 0-.229-.05c-.067 0-.135.004-.202.012-.06.009-.123.013-.19.013h-.038a.795.795 0 0 1 .19-.317c.084-.084.181-.152.291-.203.11-.059.224-.105.342-.14.119-.041.233-.084.343-.126.177-.067.32-.156.43-.266.11-.118.212-.24.305-.368l.279-.38c.093-.135.206-.258.342-.367.008-.06.012-.114.012-.165v-.152c0-.178-.008-.35-.025-.52a11.127 11.127 0 0 1-.013-.532c0-.195.026-.389.076-.583.06-.195.09-.389.09-.583 0-.17-.022-.33-.064-.482a1.932 1.932 0 0 1-.064-.494c0-.152.022-.3.064-.444a1.7 1.7 0 0 0 .063-.456c0-.245-.021-.482-.063-.71a4.026 4.026 0 0 1-.064-.71c0-.32.026-.633.076-.938.06-.304.09-.612.09-.925 0-.405-.039-.803-.115-1.191a6.94 6.94 0 0 1-.101-1.192v-.228c.008-.101.02-.198.038-.291a.884.884 0 0 1 .101-.254.205.205 0 0 1 .19-.114c-.076-.008-.173-.06-.291-.152a6.058 6.058 0 0 1-.33-.33 8.482 8.482 0 0 1-.279-.367c-.076-.127-.114-.224-.114-.292l-.127.026h-.113a.946.946 0 0 1-.343-.064l-.304-.126a3.599 3.599 0 0 0-.317-.14.98.98 0 0 0-.355-.063h-.063a2.941 2.941 0 0 0-.165-.609 1.877 1.877 0 0 1-.101-.62c0-.17.042-.305.127-.406a.872.872 0 0 1 .342-.228c.135-.06.279-.098.43-.114a4.16 4.16 0 0 1 .432-.026c.236 0 .469.013.697.038.228.026.46.038.697.038.177 0 .342-.038.494-.114a.977.977 0 0 1 .482-.127c.093 0 .19.022.291.064.102.034.203.076.304.127l.33.152c.11.042.215.071.317.088.16.026.33.038.507.038.186 0 .367.009.545.026.177.017.346.05.507.101a1.09 1.09 0 0 1 .62.444c.06.076.09.16.09.253ZM107.15 19.629c0 .076-.005.177-.013.304-.009.127-.051.211-.127.253a.314.314 0 0 0-.165.216 1.836 1.836 0 0 0-.025.304c0 .101-.004.194-.013.279-.008.076-.042.114-.101.114a.179.179 0 0 1-.101-.025.14.14 0 0 0-.102-.038c-.042 0-.084.02-.127.063-.042.042-.063.084-.063.127 0 .042.013.076.038.101.034.017.051.047.051.089 0 .034-.064.076-.19.127a7.21 7.21 0 0 1-.431.126 3.46 3.46 0 0 1-.469.114c-.152.034-.254.051-.304.051-.305 0-.609-.055-.913-.165-.304-.11-.6-.21-.887-.304-.347-.118-.604-.313-.773-.583a3.099 3.099 0 0 1-.355-.913 10.481 10.481 0 0 1-.178-1.039 3.83 3.83 0 0 0-.203-.95 1.047 1.047 0 0 1-.063-.317.69.69 0 0 1 .025-.203.684.684 0 0 1 .077-.14c.033-.042.059-.075.076-.1a.17.17 0 0 0 .038-.102.6.6 0 0 0-.089-.304.803.803 0 0 1-.089-.406v-.266a2.89 2.89 0 0 0 .013-.279c0-.313-.03-.57-.089-.773a2.059 2.059 0 0 0-.228-.558 3.584 3.584 0 0 0-.342-.507 15.087 15.087 0 0 1-.431-.608 1.112 1.112 0 0 1-.241.025h-.241c-.169 0-.338-.008-.507-.025a4.72 4.72 0 0 0-.494-.026c-.178 0-.36.017-.545.051-.178.034-.36.05-.545.05-.118 0-.237-.016-.355-.05a1.05 1.05 0 0 0-.786.025c-.143.051-.274.127-.393.229a1.143 1.143 0 0 0-.291.342.875.875 0 0 0-.102.418v.406a12.3 12.3 0 0 1-.19 2.167l-.05.33a2.007 2.007 0 0 0-.026.33c0 .346.068.624.203.836a1.9 1.9 0 0 0 .52.52c.202.126.426.232.671.316.245.085.47.173.672.266.203.085.372.19.507.317.144.127.216.3.216.52a.587.587 0 0 1-.051.24 1.933 1.933 0 0 1-.418.608 1.127 1.127 0 0 1-.317.204c-.11.05-.233.089-.368.114-.135.025-.296.059-.481.101a2.589 2.589 0 0 1-.457.064 4.129 4.129 0 0 1-.456.025c-.237 0-.469-.03-.697-.089a3.204 3.204 0 0 0-.697-.076c-.178 0-.36.017-.545.05-.178.026-.355.056-.533.09a5.934 5.934 0 0 1-.532.101c-.177.034-.355.05-.532.05-.118 0-.25-.012-.393-.037a1.21 1.21 0 0 1-.38-.14.937.937 0 0 1-.305-.24.595.595 0 0 1-.114-.368c0-.118.03-.224.09-.317a.88.88 0 0 1 .227-.24c.102-.068.207-.123.317-.166a1.15 1.15 0 0 1 .317-.076c.093-.008.169-.012.228-.012a.45.45 0 0 0 .165-.026.64.64 0 0 0 .152-.076c.05-.033.11-.084.177-.152.043-.042.08-.076.115-.101a.29.29 0 0 1 .152-.038c.042 0 .084.004.126.012a.642.642 0 0 0 .127.013.38.38 0 0 0 .203-.063.894.894 0 0 0 .38-.393c.076-.16.127-.334.152-.52.025-.194.038-.393.038-.595.009-.203.034-.39.076-.558.043-.186.064-.36.064-.52 0-.296-.038-.587-.114-.874a3.806 3.806 0 0 1-.102-.875c0-.355.026-.71.076-1.065.05-.354.076-.71.076-1.064 0-.093-.004-.182-.012-.266v-.267c0-.608.038-1.208.114-1.8a14.11 14.11 0 0 0 .114-1.8 9.463 9.463 0 0 0-.051-.988c-.017-.135-.034-.3-.05-.494a8.289 8.289 0 0 0-.077-.621 5.685 5.685 0 0 0-.14-.634 1.84 1.84 0 0 0-.227-.558 1.185 1.185 0 0 0-.355-.405.759.759 0 0 0-.495-.165.854.854 0 0 0-.139.013.645.645 0 0 1-.127.012.338.338 0 0 1-.228-.076.67.67 0 0 1-.14-.202 1.379 1.379 0 0 1-.075-.267 2.728 2.728 0 0 1-.013-.24c0-.288.072-.499.216-.634.152-.135.333-.228.545-.279.22-.05.452-.072.697-.063.253 0 .477-.009.671-.026.22-.017.436-.055.647-.114.22-.059.443-.088.672-.088.33 0 .654.042.975.126.322.085.647.127.976.127.27 0 .533-.021.786-.063a6.32 6.32 0 0 0 .76-.203c.127-.042.242-.063.343-.063.329 0 .655.042.976.126.321.085.642.135.963.152.22.017.448.06.685.127.236.06.456.148.659.266.211.11.393.254.545.431.152.178.249.385.291.621.026.144.085.283.178.419.093.126.19.245.291.354.11.102.203.199.279.292.084.084.127.156.127.215 0 .06-.03.106-.089.14-.051.025-.076.072-.076.14 0 .041.025.088.076.139.059.05.123.11.19.177.068.068.127.144.178.228.059.076.088.16.088.254 0 .126-.042.24-.126.342a.505.505 0 0 0-.115.33l.026.038.177-.051.026.025c.033.135.046.279.038.431v.393c0 .16-.005.338-.013.532-.008.195-.03.385-.063.57-.034.187-.085.36-.152.52a.887.887 0 0 1-.292.38.983.983 0 0 1-.241.14c-.076.025-.152.06-.228.101a.669.669 0 0 0-.203.14.609.609 0 0 0-.139.24 1.166 1.166 0 0 1-.216.406 11.82 11.82 0 0 1-.317.38c-.101.119-.194.241-.278.368a.798.798 0 0 0-.114.418c0 .245.055.473.164.685.119.211.224.426.317.646.093.228.161.46.203.697.042.228.072.46.089.697.025.237.042.473.05.71.017.237.043.473.076.71.017.101.055.27.115.507.067.228.147.46.24.697.093.237.199.444.317.621.119.177.241.266.368.266.11 0 .198-.059.266-.177.068-.119.131-.254.19-.406.068-.152.139-.3.216-.443a.641.641 0 0 1 .329-.292c.262.025.477.076.646.152a.911.911 0 0 1 .406.317c.093.127.156.287.19.482.042.186.064.405.064.659Zm-3.79-11.66c0-.12-.025-.254-.076-.407a3.846 3.846 0 0 0-.444-.937 2.146 2.146 0 0 0-.253-.355c-.178 0-.296-.013-.355-.038-.059-.026-.097-.055-.114-.09a1.681 1.681 0 0 0-.064-.138c-.017-.051-.076-.102-.177-.153a6.202 6.202 0 0 0-.799-.33 2.785 2.785 0 0 0-.849-.113.576.576 0 0 0-.279.076.454.454 0 0 1-.228.076c-.194 0-.384-.021-.57-.063a2.158 2.158 0 0 0-.57-.077c-.28 0-.567.034-.862.102-.195.05-.389.097-.583.14a1.891 1.891 0 0 0-.52.19 1.135 1.135 0 0 0-.38.342c-.093.143-.14.342-.14.595 0 .262.026.52.076.774.06.253.09.51.09.773 0 .126-.022.249-.064.367a5.728 5.728 0 0 1-.114.355c-.043.11-.085.224-.127.342-.034.119-.05.241-.05.368 0 .152.012.308.037.469.034.152.089.291.165.418a.96.96 0 0 0 .291.292.897.897 0 0 0 .47.114c.177 0 .346-.034.507-.102.16-.076.329-.114.506-.114a.51.51 0 0 1 .267.076c.084.043.169.089.253.14.085.05.173.101.266.152a.727.727 0 0 0 .305.063c.084 0 .164-.008.24-.025.076-.025.148-.055.216-.089.32-.144.659-.27 1.014-.38a3.464 3.464 0 0 1 1.077-.178c.093 0 .203-.05.33-.152.126-.11.257-.245.392-.405.136-.17.271-.35.406-.545.135-.203.254-.402.355-.596.11-.203.194-.384.253-.545.068-.169.102-.3.102-.393ZM122.701 13.05a1.701 1.701 0 0 1-.101.507 1.183 1.183 0 0 1-.127.254c-.051.068-.11.101-.177.101a.282.282 0 0 1-.089-.012.279.279 0 0 0-.089-.013c-.059 0-.114.03-.165.089-.042.05-.092.114-.152.19a.993.993 0 0 1-.19.19.43.43 0 0 1-.266.076c-.042 0-.106-.008-.19-.025a5.214 5.214 0 0 1 .101 1.014c0 .27-.017.536-.05.798-.034.254-.072.511-.114.773-.043.262-.081.524-.114.786a6.1 6.1 0 0 0-.051.786c0 .313.021.621.063.925.051.305.076.613.076.925 0 .136-.012.28-.038.431a1.365 1.365 0 0 1-.139.406.843.843 0 0 1-.254.317.645.645 0 0 1-.405.127c-.237 0-.423-.072-.558-.216a2.957 2.957 0 0 1-.329-.481 13.64 13.64 0 0 0-.241-.482c-.068-.152-.161-.228-.279-.228-.059 0-.135.034-.228.101a7.81 7.81 0 0 0-.292.216c-.11.084-.232.164-.367.24a1.191 1.191 0 0 1-.393.153c-.161.033-.271.08-.33.139l-.177.177a.857.857 0 0 1-.266.14c-.11.042-.305.063-.583.063-.186 0-.372-.008-.558-.025a5.753 5.753 0 0 0-.545-.026c-.135 0-.271.009-.406.026a2.955 2.955 0 0 1-.393.025c-.211 0-.384-.017-.519-.05a2.095 2.095 0 0 1-.368-.153 5.768 5.768 0 0 0-.329-.177 1.754 1.754 0 0 0-.431-.178 36.308 36.308 0 0 0-.33-.1 3.234 3.234 0 0 1-.228-.102 2.922 2.922 0 0 1-.203-.14c-.067-.059-.156-.135-.266-.228a2.818 2.818 0 0 0-.228-.152 5.635 5.635 0 0 1-.241-.152 1.455 1.455 0 0 1-.203-.19.481.481 0 0 1-.088-.254.57.57 0 0 0-.038-.164.167.167 0 0 0-.077-.076.28.28 0 0 0-.101-.038 2.892 2.892 0 0 1-.139-.076 1.804 1.804 0 0 1-.228-.47c-.051-.16-.102-.316-.153-.468a2.672 2.672 0 0 0-.19-.457 1.312 1.312 0 0 0-.342-.418.98.98 0 0 0 .038-.279c0-.177-.034-.346-.101-.507a5.464 5.464 0 0 0-.228-.494 13.756 13.756 0 0 1-.216-.507 1.566 1.566 0 0 1-.101-.558c0-.118.008-.236.025-.355a1.712 1.712 0 0 0-.025-.823 7.09 7.09 0 0 0-.114-.444 77.622 77.622 0 0 1-.127-.456 2.143 2.143 0 0 1-.051-.47v-.151l.026-.165c.05-.304.088-.613.114-.926l.076-.925c.025-.312.055-.62.088-.925.034-.313.085-.621.152-.925.068-.296.127-.587.178-.875.059-.287.089-.579.089-.874.067-.093.156-.19.266-.292.118-.101.232-.203.342-.304.118-.11.22-.22.304-.33a.899.899 0 0 0 .178-.342c.025-.11.093-.245.202-.405.119-.16.25-.321.393-.482.152-.16.305-.3.457-.418.16-.119.295-.186.405-.203a1.01 1.01 0 0 1 .165-.013.554.554 0 0 0 .33-.101c.042-.034.063-.089.063-.165a.551.551 0 0 0-.038-.19c.456-.042.908-.114 1.356-.215.448-.102.9-.153 1.356-.153.102 0 .262.005.482.013.22.009.439.038.659.089.228.042.427.11.596.203.169.084.253.202.253.355v.063a.244.244 0 0 1 .076-.013h.089c.135 0 .266.026.393.076.127.051.258.076.393.076s.274-.004.418-.012c.152-.017.3-.043.444-.076a1.76 1.76 0 0 0 .405-.165 1.04 1.04 0 0 0 .317-.254c.186 0 .338.093.456.28.119.177.212.388.279.633.068.245.114.494.14.748.033.245.05.435.05.57 0 .203-.017.406-.05.608a2.502 2.502 0 0 1-.152.596c.016.11.05.207.101.292l.177.253c.068.076.127.16.178.254a.553.553 0 0 1 .076.291c-.059.152-.097.372-.114.66a7.55 7.55 0 0 1-.076.848 2.142 2.142 0 0 1-.216.736c-.101.202-.274.304-.519.304a.61.61 0 0 1-.431-.165 1.186 1.186 0 0 1-.266-.393l.025.013c.11 0 .165-.051.165-.152 0-.026-.03-.06-.089-.102a1.614 1.614 0 0 0-.178-.126 2.888 2.888 0 0 0-.202-.14.806.806 0 0 1-.152-.14 1.492 1.492 0 0 1-.191-.329 3.364 3.364 0 0 1-.152-.43 5.17 5.17 0 0 1-.101-.47 2.903 2.903 0 0 1-.038-.443v-.114c0-.034.004-.068.013-.102l-.013.013c-.025-.009-.08-.064-.165-.165a6.748 6.748 0 0 0-.266-.33 6.502 6.502 0 0 0-.279-.354 5.94 5.94 0 0 0-.177-.241 4.02 4.02 0 0 0-.545-.456 3.96 3.96 0 0 1-.545-.457c-.068.042-.14.08-.216.114a.604.604 0 0 1-.215.038.316.316 0 0 1-.165-.038 14.11 14.11 0 0 0-.127-.101.883.883 0 0 0-.139-.114.36.36 0 0 0-.203-.05c-.186 0-.368.02-.545.063a2.184 2.184 0 0 1-.532.063c-.195 0-.389-.038-.583-.114a1.529 1.529 0 0 0-.583-.114.339.339 0 0 0-.14.038c.009.076.03.148.064.215.033.068.05.14.05.216a.5.5 0 0 1-.152.342c-.093.11-.207.215-.342.317-.127.101-.258.203-.393.304a1.506 1.506 0 0 0-.291.266 1.782 1.782 0 0 0-.229.38l-.152.406c-.05.127-.118.25-.202.368a.863.863 0 0 1-.33.291c.068.178.101.346.101.507 0 .118-.008.232-.025.342a1.998 1.998 0 0 0-.025.33c0 .27.021.54.063.811.042.262.063.528.063.799 0 .22-.021.439-.063.658a9.605 9.605 0 0 1-.127.647c-.05.211-.097.427-.139.646a4.063 4.063 0 0 0-.051.647c0 .194.021.38.064.557.05.178.105.351.164.52.059.17.11.33.152.482a1.356 1.356 0 0 1 .051.71 1.546 1.546 0 0 0-.025.278c0 .364.08.672.241.926.16.245.342.477.545.697.211.22.414.443.608.671.194.22.325.486.393.799.127-.025.249-.038.367-.038.153 0 .305.017.457.05.152.034.3.077.443.127.144.043.292.08.444.114.152.034.304.051.456.051.321 0 .647-.063.976-.19a3.7 3.7 0 0 0 .925-.532c.288-.22.537-.473.748-.76.211-.288.355-.588.431-.9.068-.305.165-.592.292-.863.05-.101.101-.164.152-.19a.56.56 0 0 1 .139-.05.945.945 0 0 0 .102-.026c.025-.008.038-.038.038-.088 0-.051-.03-.098-.089-.14a.203.203 0 0 1-.076-.165c0-.025.017-.055.051-.088.033-.043.071-.09.114-.14.05-.05.093-.11.126-.177a.584.584 0 0 0 .051-.241.612.612 0 0 0-.152-.431 1.299 1.299 0 0 0-.38-.279 2.899 2.899 0 0 0-.495-.215 3.196 3.196 0 0 1-.481-.241 1.343 1.343 0 0 1-.38-.342c-.102-.144-.153-.33-.153-.558 0-.186.047-.338.14-.456.101-.127.224-.228.367-.304.153-.076.313-.131.482-.165.169-.043.33-.076.482-.102.101-.017.211-.046.329-.088.119-.051.237-.098.355-.14.118-.05.228-.093.33-.127a.827.827 0 0 1 .291-.063c.119 0 .237.025.355.076.118.042.237.072.355.089.161.025.359.059.596.101.245.042.477.106.697.19.219.085.405.199.557.343a.675.675 0 0 1 .241.545ZM138.697 8.982a.712.712 0 0 1-.064.203 5.242 5.242 0 0 1-.152.33 2.901 2.901 0 0 1-.165.329 1.096 1.096 0 0 1-.139.203l.025.012a.11.11 0 0 0-.05.013h-.064a.476.476 0 0 1-.114.013h-.114l.051-.013a1.758 1.758 0 0 1-.533-.101.838.838 0 0 1-.38-.368 2.743 2.743 0 0 1-.076-.177 11.466 11.466 0 0 1-.19-.57 1.258 1.258 0 0 1-.025-.203c0-.068.004-.14.012-.216a.991.991 0 0 0 .026-.215c0-.262-.026-.52-.076-.774a3.91 3.91 0 0 1-.076-.773c0-.169.021-.333.063-.494.042-.16.118-.308.228-.444h-.063a.325.325 0 0 1-.241-.088c-.059-.068-.156-.102-.292-.102-.321 0-.633.038-.937.114a3.97 3.97 0 0 1-.964.114h-.405a6.742 6.742 0 0 0-.419-.012c-.262 0-.519.03-.773.088-.253.06-.498.09-.735.09-.025 0-.038-.005-.038-.014 0-.016.03-.038.089-.063.059-.034.089-.059.089-.076 0-.034-.03-.05-.089-.05h-.102c-.067 0-.126.033-.177.1a.328.328 0 0 1-.203.14 1.57 1.57 0 0 1-.405.05h-.419c-.084 0-.207-.003-.367-.012a4.662 4.662 0 0 1-.482-.05 2.274 2.274 0 0 1-.443-.14c-.127-.068-.199-.16-.216-.279-.093.026-.156.072-.19.14-.025.059-.051.122-.076.19a.565.565 0 0 1-.089.19c-.042.05-.127.08-.253.089-.237.017-.389.093-.457.228a1.014 1.014 0 0 0-.101.456c0 .093.004.186.013.279.008.093.012.186.012.279 0 .338-.008.676-.025 1.014-.008.33-.013.663-.013 1.001v.583c.009.237.026.473.051.71.034.228.08.435.139.62.06.178.144.28.254.305.068.017.139.03.215.038h.229c.295 0 .583-.034.861-.101.288-.068.579-.102.875-.102.118 0 .228.017.33.051.109.034.219.05.329.05.161 0 .283-.075.368-.228.093-.16.156-.342.19-.545a4.15 4.15 0 0 0 .076-.633c.008-.211.012-.368.012-.47 0-.21-.008-.417-.025-.62a16.746 16.746 0 0 1-.013-.634h.076c.212 0 .41.034.596.101a1.692 1.692 0 0 0 .773.09c0 .168.03.337.089.506.059.17.089.342.089.52 0 .22-.119.359-.355.418.067.118.122.237.165.355.042.118.063.24.063.367 0 .093-.008.186-.025.28a1.346 1.346 0 0 0-.026.265c0 .085.026.153.076.203.06.043.089.093.089.152 0 .102-.042.229-.127.38a1.038 1.038 0 0 0-.114.47c0 .185.017.38.051.583.034.202.072.414.114.633.042.22.08.444.114.672.034.22.051.444.051.672 0 .135-.009.275-.026.418a1.43 1.43 0 0 1-.088.418 1.209 1.209 0 0 1-.19.355.97.97 0 0 1-.305.28.858.858 0 0 1-.405-.14 1.298 1.298 0 0 1-.279-.292 1.936 1.936 0 0 1-.165-.38 3.817 3.817 0 0 1-.076-.431 3.99 3.99 0 0 1-.05-.608.83.83 0 0 0-.127-.47c-.076-.134-.228-.24-.457-.316-.219-.076-.566-.114-1.039-.114-.135 0-.329.012-.583.038-.245.025-.49.072-.735.14a2.11 2.11 0 0 0-.646.265c-.178.119-.267.267-.267.444 0 .101.009.203.026.304.025.093.038.19.038.292 0 .084-.004.169-.013.253a2.817 2.817 0 0 0-.013.266c0 .229.013.457.038.685.026.22.039.443.039.672 0 .245-.034.485-.102.722a2.975 2.975 0 0 0-.089.722c0 .27.064.486.191.647.135.152.304.27.506.355.203.076.423.127.66.152.236.025.456.038.659.038.405 0 .811-.025 1.216-.076.406-.05.812-.076 1.217-.076.254 0 .507.012.761.038.253.025.507.038.76.038.194 0 .41-.004.647-.013.236-.017.46-.059.671-.127.22-.067.406-.164.558-.291a.92.92 0 0 0 .304-.57c.009-.068.03-.115.064-.14a.501.501 0 0 1 .126-.076.834.834 0 0 0 .127-.076c.034-.025.051-.068.051-.127a.461.461 0 0 0-.076-.228.987.987 0 0 1-.102-.253 3.057 3.057 0 0 1-.063-.482v-.494c0-.254.038-.474.114-.66a1.581 1.581 0 0 0 .114-.823v-.19c0-.051.038-.102.114-.152.076-.051.165-.093.266-.127.102-.043.203-.076.304-.102.102-.025.178-.038.229-.038.211 0 .384.076.519.229.135.143.237.32.304.532.077.211.127.43.153.659.025.228.038.422.038.583 0 .262-.022.558-.064.887-.042.33-.101.668-.177 1.014a12.83 12.83 0 0 1-.241 1.014 11.19 11.19 0 0 1-.279.85 1.055 1.055 0 0 1-.152.265.646.646 0 0 1-.152.152l-.178.115a.888.888 0 0 0-.202.177c-.068.076-.199.127-.393.152a4.43 4.43 0 0 1-.596.038c-.16 0-.313-.004-.456-.012a6.14 6.14 0 0 0-.33-.013c-.279 0-.507.034-.684.101a1.3 1.3 0 0 1-.482.102c-.11 0-.182-.021-.215-.064a.171.171 0 0 0-.152-.076.23.23 0 0 0-.165.076c-.051.05-.127.076-.228.076h-.317a3.807 3.807 0 0 0-.317-.012c-.634 0-1.263.017-1.889.05a46.17 46.17 0 0 1-1.888.089 8.135 8.135 0 0 0-1.28.152 6.513 6.513 0 0 1-1.28.127 3.07 3.07 0 0 1-.52-.05 2.113 2.113 0 0 1-.558-.153 1.335 1.335 0 0 1-.431-.304.726.726 0 0 1-.177-.494c0-.186.068-.364.203-.533.135-.169.295-.325.481-.469.195-.143.393-.274.596-.393.203-.126.368-.245.494-.354a1.623 1.623 0 0 1-.012-.19v-.558c.008-.127.034-.254.076-.38a.821.821 0 0 1 .127-.267c.076-.11.114-.203.114-.279a.368.368 0 0 0-.038-.164 3.943 3.943 0 0 1-.051-.165 4.22 4.22 0 0 1-.203-.608 3.497 3.497 0 0 1-.051-.647v-.393l.026-.33c.017-.11.038-.219.063-.329.034-.118.076-.25.127-.393a1.715 1.715 0 0 1-.114-.266.906.906 0 0 1-.064-.279l.178-1.8a.422.422 0 0 1-.013-.126c0-.076.013-.152.038-.229a.738.738 0 0 0 .038-.24 1.67 1.67 0 0 0-.101-.57 1.756 1.756 0 0 1-.102-.584.72.72 0 0 1 .051-.24 6.35 6.35 0 0 0 .102-.305c.042-.11.08-.228.114-.355.033-.135.05-.278.05-.43a.518.518 0 0 0-.088-.305.553.553 0 0 1-.076-.291c0-.102.025-.203.076-.304a.736.736 0 0 0 .076-.33c0-.169-.034-.33-.102-.482a5.501 5.501 0 0 0-.19-.456c-.101-.211-.182-.38-.241-.507a.868.868 0 0 0-.19-.317.614.614 0 0 0-.317-.177 2.377 2.377 0 0 0-.557-.089.843.843 0 0 1-.343-.101 1.301 1.301 0 0 1-.278-.254 1.612 1.612 0 0 1-.191-.33.88.88 0 0 1-.076-.342.46.46 0 0 1 .203-.38c.135-.11.309-.194.52-.253.211-.068.448-.119.71-.152.262-.043.515-.072.76-.09.254-.024.482-.041.685-.05.211-.008.371-.02.481-.038.169-.025.334-.042.494-.05.161-.009.326-.013.495-.013.329 0 .659.013.988.038.338.017.672.025 1.002.025.355 0 .701-.034 1.039-.101a5.476 5.476 0 0 1 1.052-.102c.321 0 .638.038.951.115.312.067.621.1.925.1.296 0 .587-.033.874-.1a3.41 3.41 0 0 1 .875-.115c.127 0 .253.013.38.038.186.203.355.372.507.507.161.136.296.275.406.419.118.135.211.295.279.481.076.186.126.431.152.735.008.11.012.245.012.406 0 .152.005.304.013.456.008.144.03.275.063.393.043.119.106.19.191.216 0 .118-.06.177-.178.177.009.118.034.241.076.368.042.118.085.24.127.367.042.119.08.241.114.368.034.118.051.232.051.342ZM127.72 12.1a.372.372 0 0 0-.139.025c-.042.017-.072.055-.089.114.321.186.575.364.761.533.194.16.342.291.443.393.11.101.19.16.241.177.051.009.102-.046.152-.165a.416.416 0 0 0-.038-.43 1.028 1.028 0 0 0-.367-.343 1.946 1.946 0 0 0-.507-.215 1.49 1.49 0 0 0-.457-.089ZM156.226 19.629c0 .076-.005.177-.013.304-.009.127-.051.211-.127.253a.314.314 0 0 0-.165.216 1.836 1.836 0 0 0-.025.304c0 .101-.004.194-.013.279-.008.076-.042.114-.101.114a.179.179 0 0 1-.101-.025.14.14 0 0 0-.102-.038c-.042 0-.084.02-.127.063-.042.042-.063.084-.063.127 0 .042.013.076.038.101.034.017.051.047.051.089 0 .034-.064.076-.19.127a7.21 7.21 0 0 1-.431.126 3.46 3.46 0 0 1-.469.114c-.152.034-.254.051-.304.051-.305 0-.609-.055-.913-.165-.304-.11-.6-.21-.887-.304-.347-.118-.604-.313-.773-.583a3.099 3.099 0 0 1-.355-.913 10.481 10.481 0 0 1-.178-1.039 3.786 3.786 0 0 0-.203-.95 1.047 1.047 0 0 1-.063-.317.69.69 0 0 1 .025-.203.684.684 0 0 1 .077-.14c.033-.042.059-.075.076-.1a.17.17 0 0 0 .038-.102.6.6 0 0 0-.089-.304.803.803 0 0 1-.089-.406v-.266a2.89 2.89 0 0 0 .013-.279c0-.313-.03-.57-.089-.773a2.059 2.059 0 0 0-.228-.558 3.584 3.584 0 0 0-.342-.507 15.087 15.087 0 0 1-.431-.608 1.112 1.112 0 0 1-.241.025h-.241c-.169 0-.338-.008-.507-.025a4.706 4.706 0 0 0-.494-.026 3.04 3.04 0 0 0-.545.051 2.91 2.91 0 0 1-.545.05c-.118 0-.237-.016-.355-.05a1.051 1.051 0 0 0-.786.025c-.143.051-.274.127-.393.229a1.145 1.145 0 0 0-.291.342.87.87 0 0 0-.102.418v.406c0 .735-.063 1.457-.19 2.167l-.05.33a1.993 1.993 0 0 0-.026.33c0 .346.068.624.203.836.144.21.317.384.52.52.202.126.426.232.671.316.245.085.469.173.672.266.203.085.372.19.507.317.144.127.216.3.216.52a.584.584 0 0 1-.051.24 1.917 1.917 0 0 1-.418.608 1.133 1.133 0 0 1-.317.204c-.11.05-.233.089-.368.114-.135.025-.296.059-.481.101a2.594 2.594 0 0 1-.457.064 4.123 4.123 0 0 1-.456.025c-.237 0-.469-.03-.697-.089a3.206 3.206 0 0 0-.697-.076 3.04 3.04 0 0 0-.545.05c-.178.026-.355.056-.533.09a5.86 5.86 0 0 1-.532.101c-.177.034-.355.05-.532.05a2.27 2.27 0 0 1-.393-.037 1.207 1.207 0 0 1-.38-.14.938.938 0 0 1-.305-.24.595.595 0 0 1-.114-.368c0-.118.03-.224.089-.317a.877.877 0 0 1 .228-.24c.102-.068.207-.123.317-.166.11-.042.216-.067.317-.076.093-.008.169-.012.228-.012a.449.449 0 0 0 .165-.026.639.639 0 0 0 .152-.076c.051-.033.11-.084.177-.152.043-.042.081-.076.114-.101a.293.293 0 0 1 .153-.038c.042 0 .084.004.126.012a.651.651 0 0 0 .127.013.38.38 0 0 0 .203-.063.896.896 0 0 0 .38-.393c.076-.16.127-.334.152-.52a4.49 4.49 0 0 0 .038-.595c.009-.203.034-.39.076-.558.043-.186.064-.36.064-.52 0-.296-.038-.587-.114-.874a3.784 3.784 0 0 1-.102-.875c0-.355.026-.71.076-1.065.051-.354.076-.71.076-1.064 0-.093-.004-.182-.012-.266v-.267c0-.608.038-1.208.114-1.8a14.11 14.11 0 0 0 .114-1.8 9.84 9.84 0 0 0-.051-.989c-.017-.134-.034-.299-.051-.493a8.237 8.237 0 0 0-.076-.621 5.75 5.75 0 0 0-.139-.634 1.858 1.858 0 0 0-.228-.558 1.194 1.194 0 0 0-.355-.405.758.758 0 0 0-.494-.165.856.856 0 0 0-.14.013.64.64 0 0 1-.127.012.337.337 0 0 1-.228-.076.673.673 0 0 1-.139-.202 1.372 1.372 0 0 1-.076-.267 2.53 2.53 0 0 1-.013-.24c0-.288.072-.499.216-.634.152-.135.333-.228.545-.279.219-.05.452-.072.697-.063.253 0 .477-.009.671-.026.22-.017.436-.055.647-.114.22-.059.443-.088.672-.088.329 0 .654.042.976.126.321.085.646.127.975.127.271 0 .533-.021.786-.063.254-.051.507-.119.761-.203.126-.042.241-.063.342-.063.329 0 .655.042.976.126.321.085.642.135.963.152.22.017.448.06.685.127.236.06.456.148.659.266.211.11.393.254.545.431.152.178.249.385.291.621.026.144.085.283.178.419.093.126.19.245.291.354.11.102.203.199.279.292.085.084.127.156.127.215 0 .06-.03.106-.089.14-.051.025-.076.072-.076.14 0 .041.025.088.076.139.059.05.123.11.19.177.068.068.127.144.178.228.059.076.088.16.088.254 0 .126-.042.24-.126.342a.505.505 0 0 0-.115.33l.026.038.177-.051.026.025c.033.135.046.279.038.431v.393c0 .16-.005.338-.013.532-.008.195-.03.385-.063.57-.034.187-.085.36-.152.52a.887.887 0 0 1-.292.38.983.983 0 0 1-.241.14c-.076.025-.152.06-.228.101a.669.669 0 0 0-.203.14.609.609 0 0 0-.139.24 1.166 1.166 0 0 1-.216.406 11.82 11.82 0 0 1-.317.38c-.101.119-.194.241-.278.368a.798.798 0 0 0-.114.418c0 .245.055.473.164.685.119.211.224.426.317.646.093.228.161.46.203.697.042.228.072.46.089.697.025.237.042.473.05.71.017.237.043.473.076.71.017.101.055.27.115.507.067.228.147.46.24.697.093.237.199.444.317.621.119.177.241.266.368.266.11 0 .198-.059.266-.177.068-.119.131-.254.19-.406.068-.152.14-.3.216-.443a.641.641 0 0 1 .329-.292c.262.025.478.076.646.152a.911.911 0 0 1 .406.317c.093.127.156.287.19.482.042.186.064.405.064.659Zm-3.79-11.66c0-.12-.025-.254-.076-.407a3.846 3.846 0 0 0-.444-.937 2.146 2.146 0 0 0-.253-.355c-.178 0-.296-.013-.355-.038-.059-.026-.097-.055-.114-.09a1.681 1.681 0 0 0-.064-.138c-.017-.051-.076-.102-.177-.153a6.202 6.202 0 0 0-.799-.33 2.785 2.785 0 0 0-.849-.113.578.578 0 0 0-.279.076.451.451 0 0 1-.228.076c-.194 0-.384-.021-.57-.063a2.158 2.158 0 0 0-.57-.077c-.279 0-.567.034-.862.102-.195.05-.389.097-.583.14a1.885 1.885 0 0 0-.52.19 1.131 1.131 0 0 0-.38.342c-.093.143-.14.342-.14.595 0 .262.026.52.076.774.06.253.089.51.089.773 0 .126-.021.249-.063.367a6.084 6.084 0 0 1-.114.355c-.043.11-.085.224-.127.342-.034.119-.051.241-.051.368 0 .152.013.308.038.469.034.152.089.291.165.418a.952.952 0 0 0 .292.292.893.893 0 0 0 .468.114c.178 0 .347-.034.507-.102.161-.076.33-.114.507-.114.093 0 .182.026.267.076.084.043.169.089.253.14.085.05.173.101.266.152a.73.73 0 0 0 .304.063c.085 0 .165-.008.241-.025.076-.025.148-.055.216-.089.321-.144.659-.27 1.014-.38a3.464 3.464 0 0 1 1.077-.178c.093 0 .203-.05.33-.152.126-.11.257-.245.393-.405.135-.17.27-.35.405-.545.135-.203.254-.402.355-.596.11-.203.194-.384.253-.545.068-.169.102-.3.102-.393ZM75.26 46.88c0 .126-.063.231-.19.316a1.423 1.423 0 0 1-.469.203 5.35 5.35 0 0 1-.62.127c-.229.025-.457.046-.685.063-.22.008-.423.013-.609.013h-.405c-.22 0-.418.025-.596.076-.177.05-.346.105-.507.164-.152.06-.296.114-.43.165-.136.05-.271.076-.406.076a.44.44 0 0 1-.305-.114.395.395 0 0 0-.291-.114.84.84 0 0 1-.38-.089 1.212 1.212 0 0 1-.317-.228 1.344 1.344 0 0 1-.228-.342 1.017 1.017 0 0 1-.076-.38c0-.16.038-.296.114-.406a.97.97 0 0 1 .317-.266c.126-.076.261-.127.405-.152a1.99 1.99 0 0 1 .431-.05c.118 0 .232.016.342.05.11.025.212.076.304.152a.614.614 0 0 1 .102-.317 1.98 1.98 0 0 1 .19-.253 1.82 1.82 0 0 0 .177-.267.625.625 0 0 0 .09-.342c0-.22-.014-.44-.039-.659a6.067 6.067 0 0 1-.038-.672c0-.143.013-.287.038-.43a1.93 1.93 0 0 0 .05-.444c0-.17-.012-.342-.037-.52a5.613 5.613 0 0 1-.026-.532 1 1 0 0 1 .077-.418.732.732 0 0 0 .076-.305c0-.177-.03-.355-.09-.532-.058-.186-.139-.35-.24-.494a1.531 1.531 0 0 0-.355-.38.917.917 0 0 0-.418-.203 7.146 7.146 0 0 0-1.268-.114.85.85 0 0 0-.33.063.815.815 0 0 1-.24.05.408.408 0 0 1-.177-.05c-.068-.042-.114-.063-.14-.063-.11 0-.224.02-.342.063-.11.034-.224.072-.342.114l-.355.127c-.119.034-.233.05-.342.05-.186 0-.38.005-.583.013-.195 0-.39.017-.584.05-.185.026-.367.081-.544.166a1.35 1.35 0 0 0-.457.342v.089c0 .169.004.333.013.494.008.152.013.313.013.482 0 .194-.013.376-.038.545a1.65 1.65 0 0 1-.178.52.518.518 0 0 0-.038.177c0 .135.025.266.076.393.05.118.076.245.076.38 0 .059-.02.122-.063.19a.4.4 0 0 0-.064.215c0 .119.017.233.051.343.042.11.089.224.14.342.05.11.097.22.139.33.042.11.072.223.089.342.025.245.11.43.253.557.152.119.326.216.52.292.194.067.397.13.608.19.22.06.41.144.57.253a1.067 1.067 0 0 0-.025.19c0 .144.026.28.076.406.051.127.076.262.076.406a.41.41 0 0 1-.164.342.882.882 0 0 1-.38.177 2.174 2.174 0 0 1-.47.076 7.129 7.129 0 0 1-.38.013.415.415 0 0 1-.101-.025.718.718 0 0 1-.165-.051l-.152-.05-.114-.039c-.473.093-.955.152-1.445.178-.49.025-.976.038-1.458.038-.126 0-.291-.013-.494-.038a2.603 2.603 0 0 1-.608-.127 1.585 1.585 0 0 1-.507-.254.579.579 0 0 1-.203-.456c0-.084.013-.181.038-.291.025-.119.063-.233.114-.343.05-.11.11-.21.177-.304a.642.642 0 0 1 .228-.202 2.67 2.67 0 0 1 .622-.19 2.76 2.76 0 0 0 .659-.229c.21-.11.388-.274.532-.494.144-.22.216-.55.216-.989 0-.22-.009-.435-.026-.646a8.103 8.103 0 0 1-.025-.646c0-.119.004-.237.012-.355a5.56 5.56 0 0 0 .013-.368c0-.363-.021-.722-.063-1.077-.034-.364-.05-.727-.05-1.09 0-.152.012-.305.037-.457.025-.16.038-.312.038-.456 0-.211-.03-.418-.089-.62a2.162 2.162 0 0 1-.088-.61c0-.042.004-.071.012-.088a.648.648 0 0 0 .09-.254c.024-.135.045-.278.062-.43.026-.153.043-.296.051-.431.017-.136.026-.237.026-.305 0-.202-.022-.4-.064-.595a3.695 3.695 0 0 1-.05-.609c0-.118.008-.236.025-.355.025-.126.038-.249.038-.367 0-.05-.009-.08-.026-.089a.16.16 0 0 0-.063-.038.158.158 0 0 1-.063-.038c-.017-.025-.026-.076-.026-.152 0-.068.038-.152.114-.253a.546.546 0 0 0 .114-.305.98.98 0 0 0-.076-.316 2.477 2.477 0 0 0-.202-.431 2.614 2.614 0 0 0-.254-.393.804.804 0 0 0-.24-.241 2.06 2.06 0 0 0-.558-.165 5.846 5.846 0 0 1-.583-.152 1.26 1.26 0 0 1-.47-.292c-.126-.126-.19-.316-.19-.57 0-.228.064-.414.19-.558a1.44 1.44 0 0 1 .47-.367c.194-.093.401-.157.62-.19.22-.043.419-.064.596-.064.127 0 .267.009.419.026.16.008.316.03.469.063a3.6 3.6 0 0 1 .456.127c.152.042.283.093.393.152.203-.068.41-.123.62-.165.212-.042.428-.063.647-.063.127 0 .262.012.406.038.152.025.287.076.405.152a.843.843 0 0 1 .305.317c.084.127.126.296.126.507a.583.583 0 0 1-.038.228.13.13 0 0 1-.126.076c-.229 0-.46.055-.698.165-.228.101-.439.24-.633.418-.195.177-.355.38-.482.608-.118.22-.177.444-.177.672 0 .11.012.215.038.317.076.262.14.52.19.773.05.254.076.515.076.786 0 .228-.017.456-.05.684-.035.22-.052.444-.052.672 0 .296.068.537.203.723.144.177.326.316.545.418.22.101.457.169.71.203.262.033.515.05.76.05.246 0 .49-.008.736-.025.245-.025.494-.038.748-.038a2.8 2.8 0 0 1 .747.101 3.173 3.173 0 0 0 1.027.076.679.679 0 0 0 .24-.088c.026-.017.064-.047.115-.09.059-.041.118-.08.177-.113.068-.042.127-.08.178-.114a.315.315 0 0 1 .126-.05.452.452 0 0 0 .33-.254c.076-.144.13-.305.165-.482a3.16 3.16 0 0 0 .076-.558c.008-.194.013-.35.013-.469 0-.135-.022-.266-.064-.393a2.82 2.82 0 0 0-.152-.367 6.821 6.821 0 0 1-.14-.38 1.273 1.273 0 0 1-.063-.406c0-.169.013-.338.038-.507.034-.177.05-.35.05-.52 0-.355-.067-.62-.202-.798a1.143 1.143 0 0 0-.481-.393 2.199 2.199 0 0 0-.647-.165 4.472 4.472 0 0 1-.634-.114 1.324 1.324 0 0 1-.494-.266c-.127-.118-.19-.313-.19-.583 0-.178.038-.317.114-.418a.705.705 0 0 1 .291-.229c.127-.059.263-.097.406-.113.144-.017.283-.026.418-.026.27 0 .533.017.786.05.262.035.528.052.799.052.253 0 .532-.026.836-.076.304-.051.613-.077.925-.077.17 0 .368.013.596.038.228.017.448.06.66.127.21.068.388.17.532.304.143.136.215.322.215.558 0 .16-.042.292-.127.393-.084.093-.19.177-.317.254-.126.067-.27.126-.43.177-.161.05-.317.105-.47.165-.152.05-.291.114-.418.19a.635.635 0 0 0-.279.279.911.911 0 0 0-.114.342c-.008.127-.012.25-.012.367 0 .22.008.436.025.647.025.211.038.427.038.646 0 .76-.025 1.517-.076 2.269-.05.744-.076 1.491-.076 2.243v.786c.008.254.025.511.05.773.018.245.064.486.14.723.076.228.114.464.114.71a.817.817 0 0 1-.038.278.867.867 0 0 1-.089.178c-.025.05-.05.097-.076.14a.265.265 0 0 0-.038.139c0 .143.034.283.102.418a.924.924 0 0 1 .101.418c0 .186-.021.372-.063.558-.034.186-.05.372-.05.558 0 .017.012.084.037.202.034.11.068.233.102.368.042.135.084.262.126.38a.72.72 0 0 0 .102.216.966.966 0 0 0 .367.228c.144.05.296.097.457.14.16.033.316.071.468.113.161.042.3.106.419.19.084.06.177.14.279.241.11.093.164.199.164.317ZM90.964 39.059c0 .177-.017.35-.05.52-.034.16-.072.325-.115.494-.042.16-.08.325-.114.494a2.58 2.58 0 0 0-.05.507c0 .068.004.135.012.203a.69.69 0 0 1 .026.19c0 .169-.03.33-.09.482-.05.152-.113.3-.19.443-.067.127-.11.258-.126.393l-.025.406c0 .135-.013.27-.038.405a1.056 1.056 0 0 1-.152.38l-.077.38a.973.973 0 0 1-.1.343c-.01.017-.035.03-.077.038a4.461 4.461 0 0 1-.14.025.729.729 0 0 0-.164.051.402.402 0 0 0-.152.114.445.445 0 0 0-.102.178 2.554 2.554 0 0 1-.088.228.822.822 0 0 1-.127.203.218.218 0 0 1-.178.076.511.511 0 0 1-.202-.038 1.727 1.727 0 0 0-.178-.09.802.802 0 0 0-.177-.075.386.386 0 0 0-.216.013c.026.016.034.059.026.126a.712.712 0 0 0 0 .19.41.41 0 0 0 .114.19c.059.06.165.09.317.09a2.127 2.127 0 0 0 .444-.05 1.452 1.452 0 0 1-.242.442 2.026 2.026 0 0 1-.317.279c-.11.076-.228.156-.354.24a1.89 1.89 0 0 0-.355.305c-.144.144-.283.232-.418.266-.127.034-.28.076-.457.127-.203.059-.346.13-.43.215a2.604 2.604 0 0 1-.28.241 1.29 1.29 0 0 1-.418.19c-.169.06-.44.089-.811.089-.338 0-.676-.013-1.014-.038-.33-.025-.66-.06-.989-.101a1.402 1.402 0 0 1-.38-.09 1.536 1.536 0 0 1-.266-.126 3.747 3.747 0 0 1-.254-.14 2.239 2.239 0 0 0-.316-.151 3.889 3.889 0 0 1-.241-.102 6.777 6.777 0 0 1-.57-.24 1.648 1.648 0 0 1-.203-.14.457.457 0 0 1-.127-.165l-.05-.203a1.155 1.155 0 0 0-.064-.202.282.282 0 0 0-.114-.165 4.772 4.772 0 0 1-.368-.064 5.794 5.794 0 0 1-.355-.114 8.936 8.936 0 0 0-.101-.266 3.524 3.524 0 0 0-.089-.279 2.424 2.424 0 0 0-.317-.291 2.571 2.571 0 0 1-.266-.254 1.484 1.484 0 0 1-.203-.291 1.524 1.524 0 0 1-.101-.456 2.674 2.674 0 0 0-.152-.634 13.492 13.492 0 0 0-.24-.621 13.32 13.32 0 0 1-.216-.621 2.388 2.388 0 0 1-.09-.647c0-.228.047-.46.14-.697a2.574 2.574 0 0 1-.456-1.128 8.78 8.78 0 0 1-.089-1.242v-.393c.009-.135.013-.266.013-.393 0-.143-.034-.253-.101-.33a.517.517 0 0 1-.09-.303c0-.186.026-.368.077-.546.06-.177.097-.359.114-.544-.11-.017-.182-.06-.216-.127l.026-.05c.059-.102.106-.195.14-.28.041-.084.071-.164.088-.24.017-.077.034-.157.05-.241l.064-.292c.068-.346.152-.684.254-1.014.11-.33.215-.663.316-1.001.11-.389.245-.731.406-1.027.16-.296.41-.57.748-.824.144-.118.274-.245.393-.38.118-.135.203-.296.253-.482a.299.299 0 0 1 .14-.063.918.918 0 0 1 .152-.013h.101c.06 0 .114-.004.165-.012a.447.447 0 0 0 .165-.089c.126-.118.236-.203.33-.253a.913.913 0 0 1 .405-.076c.118 0 .232.012.342.038.11.016.224.038.342.063.043-.042.102-.097.178-.165a.856.856 0 0 1 .215-.152v.038a.42.42 0 0 0 .013.101c.017.026.046.038.088.038a.7.7 0 0 0 .317-.076c.102-.05.207-.084.317-.101.245-.042.49-.106.735-.19.245-.093.495-.14.748-.14.27 0 .558.017.862.051.313.034.617.097.913.19.295.093.57.224.823.393.254.16.457.372.609.634.067.118.135.211.203.279.067.059.135.114.203.165.067.042.135.088.202.139.068.042.14.106.216.19.16.186.287.389.38.609.101.21.24.4.418.57.22.203.38.448.482.735.11.287.165.579.165.875 0 .092-.013.185-.038.278-.026.093-.038.19-.038.292 0 .084.016.173.05.266a8.6 8.6 0 0 0 .14.292c.05.1.097.206.14.316.041.11.07.216.088.317.025.228.063.452.114.672.05.211.101.43.152.66.068.286.118.578.152.874.034.295.047.591.038.887Zm-2.066-.089c0-.473-.042-.942-.127-1.407l-.228-1.394a1.908 1.908 0 0 0-.165-.482 4.465 4.465 0 0 1-.177-.468 38.239 38.239 0 0 1-.291-.913l-.28-.913a.974.974 0 0 0-.354-.481 2.334 2.334 0 0 0-.621-.355 4.137 4.137 0 0 0-.773-.241 7.127 7.127 0 0 0-.786-.152 5.658 5.658 0 0 0-.71-.076 6.541 6.541 0 0 0-.482-.026l.165-.012-.14.013c-.185 0-.371-.009-.557-.026a5.746 5.746 0 0 0-.545-.025c-.152 0-.304.013-.456.038a.772.772 0 0 0-.393.165l-.786.62a2.104 2.104 0 0 0-.608.774.703.703 0 0 1-.165.24 2.54 2.54 0 0 0-.178.14.808.808 0 0 0-.139.152.659.659 0 0 0-.089.292c-.042.245-.093.49-.152.735-.05.236-.076.477-.076.722 0 .262-.025.524-.076.786a3.424 3.424 0 0 1-.215.748l-.076.19a.689.689 0 0 0 .063.52c.06.084.089.16.089.228 0 .034-.013.055-.038.063a.123.123 0 0 0-.064.026c-.017.008-.038.033-.063.075a.696.696 0 0 0-.026.229v.747c.009.254.034.503.077.748.025.144.067.283.126.419a.85.85 0 0 1 .102.405.67.67 0 0 1-.064.279.696.696 0 0 0-.063.291c0 .119.034.216.101.292.068.068.136.148.203.24.05.068.093.157.127.267.042.101.08.199.114.291.042.093.08.174.114.241.034.068.072.102.114.102a.28.28 0 0 0 .089-.013.156.156 0 0 1 .089-.025.41.41 0 0 1 .38.228c.093.143.14.287.14.43 0 .12.033.22.1.305a1.5 1.5 0 0 0 .242.215l.278.203c.102.06.186.127.254.203.11.127.194.211.253.254a.864.864 0 0 0 .178.088l.14.026c.05.008.113.038.19.088.092.068.185.144.278.228l.292.216c.262.186.553.3.874.342.33.034.65.05.963.05.127 0 .246-.029.355-.088.11-.06.22-.122.33-.19.11-.076.22-.144.33-.203a.838.838 0 0 1 .722-.012c.194-.296.38-.533.558-.71.177-.178.338-.35.481-.52.144-.169.266-.363.368-.583.101-.22.173-.52.215-.9.017-.16.06-.308.127-.444.076-.143.123-.291.14-.443.042-.338.063-.676.063-1.014.008-.338.038-.676.088-1.014a6.616 6.616 0 0 0 .051-.824ZM107.961 30.453c0 .101-.038.19-.114.266a1.125 1.125 0 0 1-.279.177c-.102.051-.207.098-.317.14a6.01 6.01 0 0 0-.279.114.906.906 0 0 0-.177.114l-.14.14a.71.71 0 0 1-.152.113.765.765 0 0 1-.203.09 1.311 1.311 0 0 1-.291.037c-.085 0-.165.009-.241.026a.368.368 0 0 0-.203.088.799.799 0 0 0-.177.267c-.051.11-.089.24-.114.392a2.33 2.33 0 0 1-.089.419.902.902 0 0 1-.19.342c-.076.093-.199.14-.368.14 0 .092.03.19.089.29l.203.28c.076.093.143.19.203.291a.516.516 0 0 1 .088.279.7.7 0 0 1-.063.291.7.7 0 0 0-.063.292l-.013.773c-.009.17.021.338.089.507.076.16.114.33.114.507a.773.773 0 0 1-.064.304.73.73 0 0 0-.063.305c0 .354.034.71.101 1.064.076.347.114.706.114 1.078 0 .245-.021.51-.063.798a1.428 1.428 0 0 1-.304.71.8.8 0 0 0 .076.304c.042.076.084.16.127.254.042.084.08.181.114.291.042.101.063.237.063.406 0 .152-.017.355-.051.608a3.528 3.528 0 0 1-.152.722c-.076.229-.181.431-.317.609a.589.589 0 0 1-.494.253h-.051c-.008-.008-.021-.012-.038-.012l-.012.076v.038c0 .118.034.224.101.316a.487.487 0 0 1 .114.317c0 .06-.038.136-.114.229-.067.093-.152.19-.253.291a5.332 5.332 0 0 1-.317.292 8.05 8.05 0 0 0-.254.24 1.036 1.036 0 0 0-.177.229 1.468 1.468 0 0 1-.114.19.5.5 0 0 1-.152.14.979.979 0 0 1-.279.088c-.22.042-.414.105-.583.19a8.934 8.934 0 0 0-.494.266 3.211 3.211 0 0 1-.52.216c-.186.067-.41.1-.672.1-.144 0-.283-.016-.418-.05a7.298 7.298 0 0 1-.406-.114 3.425 3.425 0 0 0-.418-.127 1.667 1.667 0 0 0-.406-.05c-.11 0-.22.008-.33.025a3.84 3.84 0 0 1-.316.013c-.084 0-.152-.005-.203-.013-.042-.008-.093-.042-.152-.101a.564.564 0 0 0-.203-.14 2.12 2.12 0 0 0-.279-.114 2.128 2.128 0 0 0-.304-.101 3.511 3.511 0 0 0-.253-.076 1.135 1.135 0 0 1-.444-.254 3.148 3.148 0 0 1-.38-.43 6.392 6.392 0 0 1-.304-.52 4.564 4.564 0 0 1-.418-1.356 17.366 17.366 0 0 1-.102-.9 29.331 29.331 0 0 0-.089-.9 5.421 5.421 0 0 0-.152-.9 5.726 5.726 0 0 0-.114-.355 1.47 1.47 0 0 1-.025-.647l.05-.278c.068-.355.119-.714.153-1.078a9.44 9.44 0 0 0 .063-1.09c0-.481-.025-.959-.076-1.432-.042-.473-.063-.95-.063-1.432v-.266a2.445 2.445 0 0 1 .114-.76c.059-.161.088-.326.088-.495a.518.518 0 0 0-.025-.165 4.001 4.001 0 0 1-.05-.165 1.87 1.87 0 0 1-.178-.595 33.215 33.215 0 0 1-.05-.634c-.035-.363-.11-.621-.229-.773a.927.927 0 0 0-.43-.33 3.254 3.254 0 0 0-.571-.165 1.875 1.875 0 0 1-.647-.33.766.766 0 0 1-.177-.151.4.4 0 0 1-.063-.216c0-.135.071-.257.215-.367.152-.11.33-.199.532-.266.203-.068.406-.119.609-.152.203-.043.359-.064.469-.064.135 0 .262.017.38.05.127.035.258.052.393.052.27 0 .532-.03.786-.09.253-.067.515-.1.785-.1.11 0 .28.02.507.063.229.042.457.105.685.19.228.076.427.173.596.291.177.11.266.237.266.38 0 .187-.06.364-.178.533-.11.16-.249.317-.418.469a11.54 11.54 0 0 1-.558.469c-.194.16-.376.334-.545.52a2.789 2.789 0 0 0-.43.633 1.76 1.76 0 0 0-.165.773c0 .17.004.343.012.52a5.092 5.092 0 0 1-.076 1.508c-.059.33-.088.668-.088 1.014 0 .28.038.533.114.76.084.22.126.394.126.52 0 .136-.016.262-.05.38-.026.11-.038.229-.038.356v.164c.008.051.012.106.012.165a.739.739 0 0 1-.063.33c-.034.084-.072.16-.114.228-.042.068-.085.13-.127.19a.34.34 0 0 0-.063.203c.042-.034.084-.064.126-.089a.266.266 0 0 1 .14-.038c.06 0 .106.021.14.063.033.043.059.093.075.153.026.05.043.11.051.177.009.06.013.11.013.152 0 .22.03.435.088.646.068.212.102.427.102.647 0 .194-.017.393-.05.596a3.672 3.672 0 0 0-.013 1.14c.033.16.147.292.342.393.034.017.072.068.114.152.042.085.084.178.127.28.05.092.101.19.152.29.05.094.101.161.152.203.101.093.211.17.33.229l.354.177c.127.05.245.11.355.178a1 1 0 0 1 .317.253c.076.093.173.177.291.253.119.068.233.144.343.229.118.076.219.16.304.253a.492.492 0 0 1 .127.342.61.61 0 0 1 .05-.266.365.365 0 0 1 .013.114c0 .068-.017.118-.051.152a.609.609 0 0 0 .089-.127l.101-.177c.034-.06.068-.11.102-.152.034-.042.072-.063.114-.063.059 0 .114.02.165.063.05.042.076.097.076.165a.584.584 0 0 1-.051.24.761.761 0 0 0-.063.241.676.676 0 0 0 .253-.05c.093-.043.178-.093.254-.152a.663.663 0 0 0 .177-.203.507.507 0 0 0 .076-.266c0-.11-.034-.178-.101-.203a.455.455 0 0 0-.228-.05c-.068 0-.136.003-.203.012a1.341 1.341 0 0 1-.19.013h-.038a.787.787 0 0 1 .19-.317.992.992 0 0 1 .291-.203c.11-.06.224-.106.342-.14.119-.042.233-.084.343-.126.177-.068.321-.157.431-.267.109-.118.211-.24.304-.367l.279-.38c.093-.136.207-.258.342-.368.008-.059.013-.114.013-.165v-.152c0-.177-.009-.35-.026-.52a11.816 11.816 0 0 1-.012-.532c0-.194.025-.388.076-.583.059-.194.088-.388.088-.583 0-.169-.021-.33-.063-.481a1.945 1.945 0 0 1-.063-.495c0-.152.021-.3.063-.443.042-.152.063-.304.063-.457 0-.245-.021-.481-.063-.71a4.054 4.054 0 0 1-.063-.71c0-.32.025-.633.076-.937.059-.304.088-.613.088-.925 0-.406-.038-.803-.114-1.192a7.002 7.002 0 0 1-.101-1.191v-.228c.008-.102.021-.199.038-.292a.878.878 0 0 1 .101-.253.206.206 0 0 1 .19-.114c-.076-.009-.173-.06-.291-.152a6.061 6.061 0 0 1-.33-.33 9.255 9.255 0 0 1-.279-.368c-.076-.126-.114-.224-.114-.291l-.126.025h-.114a.948.948 0 0 1-.343-.063 93.944 93.944 0 0 0-.304-.127 3.564 3.564 0 0 0-.317-.14.981.981 0 0 0-.355-.063h-.063a2.953 2.953 0 0 0-.165-.608 1.893 1.893 0 0 1-.101-.621.61.61 0 0 1 .127-.406.872.872 0 0 1 .342-.228c.135-.059.279-.097.431-.114.16-.017.304-.025.431-.025a6.3 6.3 0 0 1 .697.038c.228.025.46.038.697.038.177 0 .342-.038.494-.114a.98.98 0 0 1 .482-.127c.093 0 .19.021.291.063.102.034.203.076.305.127l.329.152c.11.043.216.072.317.089.161.025.33.038.507.038.186 0 .368.008.545.025.177.017.346.051.507.102a1.094 1.094 0 0 1 .621.443c.059.076.089.16.089.254ZM122.435 41.264c0 .431-.029.854-.089 1.268-.05.414-.088.836-.114 1.267a.663.663 0 0 0-.202-.14.403.403 0 0 0-.216-.063.455.455 0 0 0-.266.09.267.267 0 0 0-.127.227c0 .102.047.17.14.203.101.034.202.05.304.05a.835.835 0 0 0 .177-.012.66.66 0 0 1-.089.317c-.05.101-.118.203-.202.304a2.711 2.711 0 0 1-.254.292l-.228.228a1.26 1.26 0 0 0-.165.215 2.727 2.727 0 0 1-.418.507.37.37 0 0 1-.228.089.307.307 0 0 1-.203-.063.244.244 0 0 0-.177-.076c-.093 0-.152.05-.178.152a1.546 1.546 0 0 0-.025.278v.153c0 .042-.089.097-.266.164-.178.068-.393.144-.647.228l-.773.241a5.792 5.792 0 0 0-.659.228 8.064 8.064 0 0 1-1.052.355c-.355.093-.722.14-1.103.14-.278 0-.549-.038-.811-.114a15.849 15.849 0 0 1-.773-.229 8.148 8.148 0 0 0-.773-.24 2.767 2.767 0 0 0-.799-.114c-.109 0-.253.016-.431.05a1.018 1.018 0 0 0-.405.152.533.533 0 0 0-.127.178c-.042.093-.093.14-.152.14a.479.479 0 0 1-.177-.051 4.734 4.734 0 0 1-.165-.076 1.602 1.602 0 0 1-.494-.393 2.778 2.778 0 0 1-.343-.545 2.558 2.558 0 0 1-.202-.609 3.297 3.297 0 0 1-.064-.633c0-.144.013-.284.038-.419.034-.143.051-.287.051-.43 0-.203-.025-.402-.076-.596a2.812 2.812 0 0 1-.064-.596c0-.144.022-.287.064-.431a1.28 1.28 0 0 0 .076-.431.622.622 0 0 0-.076-.304.696.696 0 0 1-.076-.317c0-.076.025-.14.076-.19a.229.229 0 0 0 .089-.178c0-.101-.005-.202-.013-.304a3.438 3.438 0 0 1-.013-.304v-.215c.009-.102.021-.199.038-.292a.687.687 0 0 1 .089-.24.198.198 0 0 1 .177-.102c.152 0 .305.097.457.291.16.186.304.406.431.66.135.253.245.506.329.76.085.253.127.444.127.57a.202.202 0 0 1-.051.127.172.172 0 0 1-.127.05c.034.06.072.149.115.267a.898.898 0 0 1 .063.279.842.842 0 0 1-.051.291c-.025.093-.038.19-.038.292 0 .084.017.165.051.24.042.077.084.148.127.216.067.101.126.178.177.228.051.05.106.089.165.114.059.017.122.03.19.038.076.009.173.017.291.026a4.923 4.923 0 0 0 1.255 1.254c.38.085.756.152 1.128.203.372.05.748.076 1.128.076a2.87 2.87 0 0 0 1.458-.367c.203-.11.397-.233.583-.368.186-.144.38-.291.583-.444a6.19 6.19 0 0 1 .456-.291c.161-.093.317-.19.469-.291.152-.102.296-.212.431-.33.135-.127.249-.27.342-.431a1.34 1.34 0 0 1 .254-.304c.118-.11.177-.228.177-.355a.405.405 0 0 0-.012-.114c-.034-.27-.06-.532-.076-.786a32.333 32.333 0 0 0-.038-.798c-.017-.254-.072-.444-.165-.57a1.102 1.102 0 0 0-.355-.33 4.343 4.343 0 0 0-.444-.267 1.967 1.967 0 0 1-.469-.354 1.067 1.067 0 0 0-.545-.305 3.516 3.516 0 0 0-.608-.076 15.85 15.85 0 0 1-.634-.038 1.167 1.167 0 0 1-.57-.24.247.247 0 0 0-.127-.051.408.408 0 0 0-.228.076.423.423 0 0 1-.228.063c-.127 0-.258-.017-.393-.05a6.227 6.227 0 0 1-.38-.115l-.381-.126a2.038 2.038 0 0 0-.38-.089 5.979 5.979 0 0 0-.418-.05 3.088 3.088 0 0 1-.292-.039 2.87 2.87 0 0 1-.278-.101 3.625 3.625 0 0 1-.381-.228 4.89 4.89 0 0 0-1.407-.634 4.495 4.495 0 0 0-.367-.723 4.838 4.838 0 0 0-.279-.164 4.974 4.974 0 0 1-.253-.19 3.353 3.353 0 0 1-.203-.444 20.532 20.532 0 0 1-.228-.672 25.368 25.368 0 0 1-.203-.684 2.221 2.221 0 0 1-.076-.456c0-.195.021-.38.063-.558a.967.967 0 0 1 .292-.482c.025-.017.055-.038.088-.063.043-.034.064-.072.064-.114 0-.042-.034-.072-.102-.089-.059-.025-.088-.072-.088-.14 0-.008.004-.02.012-.037a.194.194 0 0 0 .013-.064c.059-.186.148-.363.266-.532.118-.17.254-.33.406-.482.152-.152.308-.291.469-.418.169-.135.329-.258.481-.367.11-.077.203-.174.279-.292a.831.831 0 0 1 .266-.254h.178a1.24 1.24 0 0 1 .355 0h.19a.432.432 0 0 0 .19-.114c.034-.05.068-.097.101-.139a.373.373 0 0 1 .127-.101.851.851 0 0 1 .304-.038 3.1 3.1 0 0 1 .279.012h.279c.321 0 .638-.004.951-.012.321-.009.642-.013.963-.013.228 0 .452.004.672.013.228 0 .456.016.684.05.152.017.3.05.444.102a1.6 1.6 0 0 0 .456.063c.152 0 .258-.03.317-.089a.641.641 0 0 0 .152-.19c.042-.067.089-.13.139-.19.051-.06.14-.089.266-.089.178 0 .36.047.545.14.195.093.376.169.545.228l-.012.05a.78.78 0 0 0-.038.254c0 .144.021.287.063.431l.152.406c.051.135.097.27.14.405.05.135.076.279.076.431 0 .093-.009.182-.026.266-.017.076-.025.16-.025.254 0 .169.034.291.101.367.068.068.102.131.102.19 0 .068-.03.127-.089.178-.059.042-.089.11-.089.203 0 .22.013.44.038.659a5.288 5.288 0 0 1 .026.988c0 .152-.017.305-.051.457-.025.143-.072.27-.139.38a.287.287 0 0 1-.267.165.588.588 0 0 1-.367-.14 2.393 2.393 0 0 1-.292-.291 1.138 1.138 0 0 1-.24-.38 3.802 3.802 0 0 1-.127-.444 7.108 7.108 0 0 0-.114-.444 1.481 1.481 0 0 0-.19-.418 19.74 19.74 0 0 1-.393-.583l-.355-.608a1.417 1.417 0 0 0-.241-.317.485.485 0 0 0-.216-.114.837.837 0 0 0-.266-.038 2.993 2.993 0 0 1-.811-.152 6.842 6.842 0 0 0-.443-.14 3.856 3.856 0 0 0-.444-.127 1.698 1.698 0 0 0-.456-.063c-.245 0-.495.038-.748.114a5.624 5.624 0 0 0-.761.292c-.253.11-.502.228-.747.355-.245.118-.482.22-.71.304-.211.447-.317.93-.317 1.445 0 .371.042.676.127.912.084.237.198.44.342.609.152.16.321.304.507.43.194.127.397.262.608.406.22.144.435.24.647.292.219.042.456.063.709.063.144 0 .283-.004.419-.013a7.27 7.27 0 0 1 .431-.012c.16 0 .312.02.456.063.144.042.283.093.418.152.144.05.287.097.431.14.144.042.292.063.444.063.143 0 .279-.009.405-.026.135-.016.271-.025.406-.025a.58.58 0 0 1 .317.089c.093.05.186.114.279.19.093.068.185.131.278.19.102.06.212.093.33.102.169.084.308.16.418.228.11.067.207.14.292.215.093.076.177.17.253.279.085.11.178.245.279.406.093.16.216.3.368.418s.274.262.367.43c.034.06.055.132.064.216.008.076.021.152.038.228a.741.741 0 0 0 .076.19c.042.051.105.08.19.09.008.092.012.185.012.278.009.085.013.173.013.266ZM138.773 34.94a.68.68 0 0 1-.064.202 5.242 5.242 0 0 1-.152.33c-.05.118-.105.228-.165.33a1.097 1.097 0 0 1-.139.202l.025.013a.11.11 0 0 0-.05.013h-.064a.47.47 0 0 1-.114.012h-.114l.051-.012a1.74 1.74 0 0 1-.532-.102.835.835 0 0 1-.381-.367 2.75 2.75 0 0 1-.076-.178 11.396 11.396 0 0 1-.19-.57 1.26 1.26 0 0 1-.025-.203c0-.068.004-.14.012-.215a.991.991 0 0 0 .026-.216c0-.262-.026-.52-.076-.773a3.91 3.91 0 0 1-.076-.773c0-.17.021-.334.063-.495.042-.16.118-.308.228-.443h-.063a.325.325 0 0 1-.241-.089c-.059-.067-.156-.101-.291-.101-.322 0-.634.038-.938.114a3.972 3.972 0 0 1-.964.114h-.405a6.758 6.758 0 0 0-.419-.013c-.261 0-.519.03-.773.089-.253.06-.498.089-.735.089-.025 0-.038-.005-.038-.013 0-.017.03-.038.089-.063.059-.034.089-.06.089-.076 0-.034-.03-.051-.089-.051h-.102c-.067 0-.126.034-.177.101a.328.328 0 0 1-.203.14c-.126.034-.262.05-.405.05h-.419a7.58 7.58 0 0 1-.367-.012 4.69 4.69 0 0 1-.482-.05 2.27 2.27 0 0 1-.443-.14c-.127-.068-.199-.16-.216-.28-.093.026-.156.073-.19.14-.025.06-.051.123-.076.19a.566.566 0 0 1-.089.19c-.042.051-.127.08-.253.09-.237.016-.389.092-.457.227a1.014 1.014 0 0 0-.101.457c0 .093.004.185.013.279.008.092.012.185.012.278 0 .338-.008.676-.025 1.014-.008.33-.013.664-.013 1.002v.583c.009.236.026.473.051.71.034.227.08.434.14.62.059.178.143.28.253.305.068.017.139.03.215.038h.229c.295 0 .583-.034.861-.102.288-.067.579-.101.875-.101.118 0 .228.017.33.05.109.034.219.051.329.051.161 0 .283-.076.368-.228.093-.16.156-.342.19-.545.042-.211.067-.422.076-.634a7.431 7.431 0 0 0-.013-1.09 16.74 16.74 0 0 1-.013-.633h.077c.211 0 .409.033.595.101a1.692 1.692 0 0 0 .773.089c0 .169.03.338.089.507.059.169.089.342.089.52 0 .22-.118.358-.355.418.068.118.122.236.165.355.042.118.063.24.063.367 0 .093-.008.186-.025.279a1.347 1.347 0 0 0-.026.266c0 .085.026.152.076.203.06.042.089.093.089.152 0 .101-.042.228-.127.38a1.038 1.038 0 0 0-.114.47c0 .185.017.38.051.582.034.203.072.414.114.634.042.22.08.443.114.672.034.22.051.443.051.671 0 .136-.009.275-.025.419a1.465 1.465 0 0 1-.089.418 1.21 1.21 0 0 1-.19.355.978.978 0 0 1-.304.279.86.86 0 0 1-.406-.14 1.298 1.298 0 0 1-.279-.291 1.937 1.937 0 0 1-.165-.38 4.053 4.053 0 0 1-.076-.431 3.99 3.99 0 0 1-.05-.609.831.831 0 0 0-.127-.469c-.076-.135-.228-.24-.456-.317-.22-.076-.567-.114-1.04-.114-.135 0-.329.013-.583.038-.245.026-.49.072-.735.14a2.12 2.12 0 0 0-.646.266c-.178.118-.267.266-.267.444 0 .1.009.202.026.304.025.093.038.19.038.291 0 .085-.004.17-.013.254a2.826 2.826 0 0 0-.012.266c0 .228.012.456.038.684.025.22.038.444.038.672 0 .245-.034.486-.102.722a2.975 2.975 0 0 0-.089.723c0 .27.064.486.191.646.135.152.304.27.507.355.202.076.422.127.659.152.236.026.456.038.659.038.405 0 .811-.025 1.216-.076.406-.05.812-.076 1.217-.076.254 0 .507.013.761.038.253.026.507.038.76.038.195 0 .41-.004.647-.012.236-.017.46-.06.671-.127.22-.068.406-.165.558-.292a.916.916 0 0 0 .304-.57c.009-.067.03-.114.064-.14a.5.5 0 0 1 .126-.075.833.833 0 0 0 .127-.077c.034-.025.051-.067.051-.126a.462.462 0 0 0-.076-.228.985.985 0 0 1-.102-.254 3.178 3.178 0 0 1-.063-.481v-.495c0-.253.038-.473.114-.659a1.564 1.564 0 0 0 .114-.824v-.19c0-.05.038-.101.114-.152.076-.05.165-.093.266-.127.102-.042.203-.076.305-.101.101-.025.177-.038.228-.038.211 0 .384.076.519.228.136.144.237.321.305.532.076.212.126.431.152.66.025.228.038.422.038.582 0 .262-.022.558-.064.888-.042.33-.101.667-.177 1.014-.068.346-.148.684-.241 1.014-.093.32-.186.604-.279.849a1.056 1.056 0 0 1-.152.266.646.646 0 0 1-.152.152l-.177.114a.868.868 0 0 0-.203.178c-.068.076-.199.126-.393.152a4.414 4.414 0 0 1-.596.038 7.82 7.82 0 0 1-.456-.013 6.036 6.036 0 0 0-.33-.013c-.279 0-.507.034-.684.102a1.3 1.3 0 0 1-.482.101c-.11 0-.181-.02-.215-.063a.171.171 0 0 0-.152-.076.231.231 0 0 0-.165.076c-.051.05-.127.076-.228.076h-.317a3.807 3.807 0 0 0-.317-.013c-.634 0-1.263.017-1.889.05a46.35 46.35 0 0 1-1.888.09 8.135 8.135 0 0 0-1.28.152 6.513 6.513 0 0 1-1.28.126 3.07 3.07 0 0 1-.52-.05 2.105 2.105 0 0 1-.558-.152 1.333 1.333 0 0 1-.431-.305.726.726 0 0 1-.177-.494c0-.186.068-.363.203-.532.135-.17.296-.325.481-.47.195-.143.393-.274.596-.392.203-.127.368-.245.494-.355a1.623 1.623 0 0 1-.012-.19v-.558a1.51 1.51 0 0 1 .076-.38.822.822 0 0 1 .127-.266c.076-.11.114-.203.114-.279a.368.368 0 0 0-.038-.165 3.984 3.984 0 0 1-.051-.164 4.227 4.227 0 0 1-.203-.609 3.497 3.497 0 0 1-.051-.646v-.393l.026-.33c.017-.11.038-.22.063-.33.034-.118.076-.249.127-.392a1.72 1.72 0 0 1-.114-.266.906.906 0 0 1-.064-.28l.178-1.799a.423.423 0 0 1-.013-.127c0-.076.013-.152.038-.228a.739.739 0 0 0 .038-.24 1.67 1.67 0 0 0-.101-.571 1.755 1.755 0 0 1-.102-.583.72.72 0 0 1 .051-.24c.034-.094.068-.195.102-.305.042-.11.08-.228.114-.355.033-.135.05-.279.05-.43a.518.518 0 0 0-.088-.305.553.553 0 0 1-.076-.292c0-.101.025-.202.076-.304a.736.736 0 0 0 .076-.33c0-.168-.034-.329-.102-.481a5.487 5.487 0 0 0-.19-.456c-.101-.212-.182-.38-.241-.507a.867.867 0 0 0-.19-.317.61.61 0 0 0-.317-.178 2.38 2.38 0 0 0-.557-.088.844.844 0 0 1-.343-.102 1.301 1.301 0 0 1-.278-.253 1.612 1.612 0 0 1-.191-.33.88.88 0 0 1-.076-.342.46.46 0 0 1 .203-.38c.135-.11.309-.194.52-.254.211-.067.448-.118.71-.152.262-.042.515-.072.76-.088.254-.026.482-.043.685-.051.211-.009.371-.021.481-.038a5.13 5.13 0 0 1 .495-.05c.16-.01.325-.014.494-.014.329 0 .659.013.988.038.338.017.672.026 1.002.026.355 0 .701-.034 1.039-.102a5.476 5.476 0 0 1 1.052-.101c.321 0 .638.038.951.114.312.068.621.102.925.102.296 0 .587-.034.874-.102.288-.076.579-.114.875-.114.127 0 .253.013.38.038.186.203.355.372.507.507.161.135.296.275.406.418.118.135.211.296.279.482.076.186.126.43.152.735.008.11.012.245.012.406 0 .152.005.304.013.456.009.143.03.274.063.393.043.118.106.19.191.215 0 .119-.06.178-.178.178.009.118.034.24.076.367.042.119.085.241.127.368.042.118.08.24.114.367.034.119.051.233.051.343Zm-10.977 3.118a.372.372 0 0 0-.139.025c-.042.017-.072.055-.089.114.321.186.575.363.761.532.194.16.342.292.443.393.11.102.191.16.241.178.051.008.102-.047.152-.165a.416.416 0 0 0-.038-.431 1.028 1.028 0 0 0-.367-.342 1.946 1.946 0 0 0-.507-.216 1.487 1.487 0 0 0-.457-.088Z" fill="#fff"/><path fill-rule="evenodd" clip-rule="evenodd" d="M22.893.09C14.564.73 7.354 4.618 3.518 10.54c-.997 1.538-1.626 2.992-2.1 4.851-.296 1.165-.308 1.873-.042 2.584l.202.538-.212.625c-.167.496-.203.79-.17 1.419.066 1.286.675 2.34 1.78 3.079l.37.247v2.64l-.564.267c-.845.4-1.807 1.36-2.23 2.223-.92 1.88-.672 4.151.614 5.613l.393.446-.192.616c-.362 1.164-.192 2.415.456 3.357l.339.493v2.078c0 2.528.115 3.21.766 4.536 1.023 2.083 3.033 3.473 5.417 3.746 1.186.136 32.615.136 33.802 0 1.692-.194 2.985-.827 4.213-2.062.59-.593.838-.94 1.204-1.684.636-1.297.766-2.028.766-4.32v-1.86l.26-.24c1.146-1.054 1.535-2.968.89-4.377l-.264-.576.253-.332c1.132-1.484 1.328-3.705.48-5.423-.433-.876-1.393-1.833-2.24-2.234l-.563-.267v-2.42l.537-.28c.687-.358 1.472-1.189 1.81-1.914.231-.496.265-.692.266-1.556.001-.922-.02-1.033-.327-1.656-.288-.586-.316-.706-.222-.975.252-.723-.002-2.254-.679-4.101-1.741-4.752-6.3-9.122-11.891-11.398A30.275 30.275 0 0 0 22.893.09ZM27.42 2.06c9.817.754 17.843 6.336 19.728 13.72.234.915.244 1.285.045 1.67-.328.633 1.377.588-21.948.588-23.326 0-21.62.046-21.948-.589-.199-.384-.189-.755.045-1.67.993-3.89 3.743-7.395 7.815-9.96C15.652 2.986 21.6 1.611 27.42 2.058ZM24.13 3.97c-.686.635-.246 1.691.694 1.664.435-.012.915-.47.915-.873 0-.327-.248-.8-.488-.928-.338-.181-.845-.12-1.121.137Zm4.717.447c-.617.252-.795 1.08-.333 1.542.207.208.501.306 1.584.532 5.782 1.203 10.29 4.21 12.367 8.249.541 1.051.715 1.225 1.226 1.222.52-.003.989-.465.989-.974 0-.34-1.055-2.283-1.723-3.175-.855-1.143-2.652-2.846-3.913-3.71-2.499-1.71-5.35-2.893-8.52-3.535-1.31-.265-1.383-.272-1.677-.151ZM15.056 8.822c-.518.281-.623 1.038-.202 1.46.471.47 1.07.442 1.453-.07.311-.417.264-.922-.119-1.264-.355-.317-.707-.356-1.132-.126Zm7.505.129c-.26.233-.32.36-.32.685 0 .978 1.26 1.348 1.753.514.295-.5.144-1.094-.34-1.344-.414-.214-.74-.17-1.093.145Zm-12.179 3.508c-.905.393-.582 1.829.412 1.829a.96.96 0 0 0 .937-.936c0-.486-.15-.731-.547-.897-.402-.168-.407-.168-.802.004Zm9.865 0c-.905.393-.582 1.829.412 1.829a.96.96 0 0 0 .937-.936c0-.486-.15-.731-.547-.897-.402-.168-.407-.168-.802.004Zm6.885.707c-.296.208-.501.702-.435 1.05.065.339.554.763.881.763.545 0 1.016-.448 1.02-.969.003-.43-.137-.673-.49-.855-.372-.193-.69-.19-.976.011Zm20.698 7.168a2.19 2.19 0 0 1-.146.738c-.48 1.148-1.682 1.526-3.25 1.022-.513-.165-.927-.222-1.608-.222-1.374 0-2.014.225-3.517 1.231-.833.558-1.412.754-2.225.754-.788 0-1.41-.202-2.11-.683-1.467-1.01-2.284-1.3-3.654-1.303-1.367-.003-2.175.262-3.46 1.133-.882.598-1.563.848-2.318.85-.892.003-1.307-.135-2.246-.746-1.569-1.021-2.221-1.242-3.652-1.237-1.267.005-1.98.232-3.178 1.013-1.21.788-1.698.973-2.565.973-.817 0-1.397-.198-2.225-.758-.841-.57-1.695-.992-2.26-1.117-.87-.193-2.079-.131-3.062.156-.985.287-1.468.277-2.096-.045-.714-.366-1.11-1.006-1.11-1.793 0-.45.02-.5.173-.424.095.046 9.894.094 21.777.105 20.156.02 21.637.01 22.098-.148.566-.194.622-.15.634.5Zm-26.651 3.808c.23.117.752.431 1.161.698 1.044.681 1.683.9 2.807.96 1.462.08 2.366-.186 3.683-1.078 1.01-.684 1.549-.88 2.41-.879.962.002 1.398.158 2.567.915 1.155.748 1.805.983 2.904 1.048 1.463.087 2.423-.207 3.858-1.181 1.191-.81 2.259-.982 3.57-.577.363.112.744.204.847.204.171 0 .187.084.187.986v.987H5.32v-1.857l.419-.067a9.99 9.99 0 0 0 1.046-.255c.761-.23 1.897-.247 2.488-.038.234.082.843.42 1.352.75 1.156.748 1.805.983 2.904 1.048 1.458.087 2.424-.208 3.844-1.172.321-.218.748-.466.949-.55.821-.346 2.118-.32 2.858.058Zm-10.414 6.89c2.776 2.77 2.85 2.834 3.236 2.834.378 0 .46-.065 1.9-1.503.827-.826 1.548-1.502 1.601-1.502.115 0 3.6 3.465 3.6 3.579 0 .043-3.762.065-8.36.049-9.393-.034-8.835.01-9.73-.778-1.855-1.631-1.076-4.866 1.294-5.375.313-.067 1.255-.125 2.094-.13l1.525-.008 2.84 2.834Zm5.352-1.648L14 31.501l-3.304-3.303h4.247l1.174 1.186Zm13.568 2.809-3.995 3.995-3.995-3.995-3.995-3.995h15.98l-3.995 3.995Zm16.349-3.886c1.554.271 2.611 1.696 2.46 3.316-.142 1.52-1.098 2.547-2.6 2.793-.59.097-15.617.138-15.617.043 0-.028 1.41-1.447 3.132-3.153l3.132-3.1 4.431-.005c2.827-.002 4.66.036 5.062.106Zm1.707 7.937c.286.754-.045 1.717-.771 2.243-.567.411-1.395.476-2.359.184-1.892-.572-3.417-.31-5.192.894-.974.66-1.39.804-2.335.804-.952 0-1.36-.143-2.367-.826-1.436-.975-2.765-1.325-4.226-1.112-.943.138-1.566.406-2.75 1.185-.766.504-1.02.617-1.61.716-1.114.188-1.744.025-2.982-.772-1.192-.766-2.002-1.085-2.972-1.167-1.36-.115-2.573.243-3.914 1.153-1.001.68-1.41.823-2.362.823-.945 0-1.36-.143-2.335-.804-1.761-1.194-3.315-1.468-5.148-.905-1.755.538-3.15-.176-3.243-1.657-.049-.78.034-.88.58-.712.342.106 2.35.14 9.949.166l9.52.034.986.981c1.433 1.425 1.557 1.422 3.056-.093l.886-.895 8.585-.003c8.421-.003 9.566-.039 10.36-.325.542-.195.535-.196.644.088ZM8.984 40.466c.365.086.851.326 1.402.693 1.502 1 2.586 1.33 3.95 1.206 1.035-.094 1.8-.389 2.96-1.14.83-.538 1.167-.697 1.677-.793 1.121-.212 1.955 0 3.115.787 2.306 1.566 4.503 1.566 6.809 0 1.172-.796 1.977-1.002 3.095-.79.5.093.842.251 1.559.716 1.696 1.101 2.728 1.389 4.249 1.185 1.001-.134 1.54-.359 2.712-1.129 1.383-.908 2.166-1.045 3.576-.623a5.367 5.367 0 0 0 1.547.247h.722v1.41c0 .93-.05 1.601-.147 1.973a5.063 5.063 0 0 1-3.454 3.588c-.564.173-1.374.181-17.51.181-16.137 0-16.946-.008-17.51-.181a5.063 5.063 0 0 1-3.454-3.588c-.099-.377-.147-1.05-.147-2.033v-1.47l.26.065c.57.143 1.663.062 2.453-.182.908-.28 1.355-.306 2.136-.122Z" fill="#fff"/></svg><svg fill="none" viewBox="0 0 24 25" id="shopping-card" xmlns="http://www.w3.org/2000/svg"><path d="M17 18.5a2 2 0 1 1-2 2c0-1.11.89-2 2-2ZM1 2.5h3.27l.94 2H20a1 1 0 0 1 1 1c0 .17-.05.34-.12.5l-3.58 6.47c-.34.61-1 1.03-1.75 1.03H8.1l-.9 1.63-.03.12a.25.25 0 0 0 .25.25H19v2H7a2 2 0 0 1-2-2c0-.35.09-.68.24-.96l1.36-2.45L3 4.5H1v-2Zm6 16a2 2 0 1 1-2 2c0-1.11.89-2 2-2Zm9-7 2.78-5H6.14l2.36 5H16Z" fill="#191411"/></svg></svg>